<svg xmlns="http://www.w3.org/2000/svg" width="49.057" height="35.906" viewBox="0 0 49.057 35.906">
  <g id="Group_209" data-name="Group 209" transform="translate(-130.947 -193.533)">
    <g id="noun_payment_404591" transform="translate(113.223 167.157)">
      <path id="Path_10981" data-name="Path 10981" d="M48.827,26.376A17.973,17.973,0,0,0,31.888,38.417l-4.845-3.43v5.38H17.724v7.925h9.32v5.379l4.845-3.435A17.947,17.947,0,1,0,48.827,26.376Zm-19.5,22.889V46.013H20ZM48.827,60A15.69,15.69,0,0,1,33.835,48.864l6.4-4.533-6.4-4.534A15.669,15.669,0,1,1,48.827,60Z" fill="#fff"/>
    </g>
    <g id="noun_Rupee_3281017" transform="translate(135 184.454)">
      <path id="Path_10982" data-name="Path 10982" d="M27.9,24.744a.432.432,0,0,0-.607-.069,14.068,14.068,0,0,0-1.92,1.854.432.432,0,0,0,.656.562,13.206,13.206,0,0,1,1.8-1.74A.432.432,0,0,0,27.9,24.744Z" transform="translate(-8.678 -8.285)" fill="#fff" stroke="#fff" stroke-width="0.6"/>
      <path id="Path_10984" data-name="Path 10984" d="M21.671,62.727a.432.432,0,0,0-.778.374,13.926,13.926,0,0,0,1.38,2.285.432.432,0,1,0,.693-.515A13.062,13.062,0,0,1,21.671,62.727Z" transform="translate(-6.164 -29.819)" fill="#fff" stroke="#fff" stroke-width="0.6"/>
      <path id="Path_10985" data-name="Path 10985" d="M58.558,77.632a12.969,12.969,0,0,1-2.378.78.432.432,0,0,0,.094.853.427.427,0,0,0,.094-.011,13.776,13.776,0,0,0,2.537-.832.432.432,0,0,0-.347-.79Z" transform="translate(-26.047 -38.406)" fill="#fff" stroke="#fff" stroke-width="0.6"/>
      <path id="Path_10986" data-name="Path 10986" d="M80.487,43.4a.432.432,0,0,0-.848.164,13.2,13.2,0,0,1,.237,2.493v.058a.432.432,0,0,0,.864,0v-.058A14.013,14.013,0,0,0,80.487,43.4Z" transform="translate(-39.563 -18.776)" fill="#fff" stroke="#fff" stroke-width="0.6"/>
      <path id="Path_10987" data-name="Path 10987" d="M44.974,79.755a13.054,13.054,0,0,1-2.482-.325.432.432,0,1,0-.194.842,13.914,13.914,0,0,0,2.646.346h.015a.432.432,0,0,0,.014-.863Z" transform="translate(-18.161 -39.443)" fill="#fff" stroke="#fff" stroke-width="0.6"/>
      <path id="Path_10988" data-name="Path 10988" d="M50.449,18.68a13.187,13.187,0,0,1,2.483.32.424.424,0,0,0,.1.011.432.432,0,0,0,.1-.853,14.018,14.018,0,0,0-2.647-.341.432.432,0,0,0-.029.863Z" transform="translate(-22.745 -4.441)" fill="#fff" stroke="#fff" stroke-width="0.6"/>
      <path id="Path_10989" data-name="Path 10989" d="M66.051,23.622a.432.432,0,0,0,.27-.769,13.949,13.949,0,0,0-2.235-1.459.432.432,0,1,0-.4.765,13.038,13.038,0,0,1,2.1,1.369A.43.43,0,0,0,66.051,23.622Z" transform="translate(-30.371 -6.445)" fill="#fff" stroke="#fff" stroke-width="0.6"/>
      <path id="Path_10991" data-name="Path 10991" d="M32.275,74.825a13.068,13.068,0,0,1-2.093-1.373.432.432,0,0,0-.541.673,13.92,13.92,0,0,0,2.232,1.465.432.432,0,1,0,.4-.764Z" transform="translate(-11.068 -35.998)" fill="#fff" stroke="#fff" stroke-width="0.6"/>
      <path id="Path_10992" data-name="Path 10992" d="M78.51,57.063a.432.432,0,0,0-.528.307,12.965,12.965,0,0,1-.874,2.345.432.432,0,0,0,.777.378,13.894,13.894,0,0,0,.932-2.5A.432.432,0,0,0,78.51,57.063Z" transform="translate(-38.105 -26.732)" fill="#fff" stroke="#fff" stroke-width="0.6"/>
      <path id="Path_10993" data-name="Path 10993" d="M70.337,69.476a13.155,13.155,0,0,1-1.8,1.736.432.432,0,1,0,.536.676,14,14,0,0,0,1.924-1.85.432.432,0,1,0-.655-.563Z" transform="translate(-33.164 -33.708)" fill="#fff" stroke="#fff" stroke-width="0.6"/>
      <path id="Path_10994" data-name="Path 10994" d="M75.788,33.428a.426.426,0,0,0,.187-.043.432.432,0,0,0,.2-.576,13.955,13.955,0,0,0-1.384-2.282.432.432,0,0,0-.692.516,13.067,13.067,0,0,1,1.3,2.141A.431.431,0,0,0,75.788,33.428Z" transform="translate(-36.372 -11.564)" fill="#fff" stroke="#fff" stroke-width="0.6"/>
      <path id="Path_10995" data-name="Path 10995" d="M37.012,20.208a12.969,12.969,0,0,1,2.376-.785.432.432,0,1,0-.191-.843,13.885,13.885,0,0,0-2.535.837.432.432,0,0,0,.349.79Z" transform="translate(-15.003 -4.869)" fill="#fff" stroke="#fff" stroke-width="0.6"/>
      <path id="Path_10996" data-name="Path 10996" d="M46.24,48.4a.432.432,0,0,0,.3-.746l-7.67-7.262h2.906a4.434,4.434,0,0,0,4.411-4.054h1.971a.432.432,0,1,0,0-.864h-1.98a4.427,4.427,0,0,0-1.785-3.079h3.765a.432.432,0,1,0,0-.864H37.782a.432.432,0,1,0,0,.864h3.99A3.569,3.569,0,0,1,45.3,35.473H39.873a.432.432,0,0,0,0,.864h5.446a3.571,3.571,0,0,1-3.546,3.191h-3.99a.432.432,0,0,0-.3.746l8.458,8.008A.431.431,0,0,0,46.24,48.4Z" transform="translate(-15.54 -12.233)" fill="#fff" stroke="#fff" stroke-width="0.6"/>
      <path id="Path_10997" data-name="Path 10997" d="M27.273,10A17.273,17.273,0,1,0,44.546,27.273,17.293,17.293,0,0,0,27.273,10Zm0,33.682A16.409,16.409,0,1,1,43.682,27.273,16.428,16.428,0,0,1,27.273,43.682Z" fill="#fff" stroke="#fff" stroke-width="0.6"/>
    </g>
  </g>
</svg>
