<svg xmlns="http://www.w3.org/2000/svg" width="46.83" height="44.446" viewBox="0 0 46.83 44.446">
  <g id="noun_filter_885040" transform="translate(-2.35 -2.35)">
    <path id="Path_10980" data-name="Path 10980" d="M25.765,2.5C12.714,2.5,2.5,6.056,2.5,10.633v1.438a4.319,4.319,0,0,0,1.324,3.1l15.585,15.7a6.9,6.9,0,0,1,2.043,4.918v9.533a1.34,1.34,0,0,0,1.324,1.324,1.2,1.2,0,0,0,.605-.151l5.41-2.724a2.438,2.438,0,0,0,1.362-2.194V35.827A6.9,6.9,0,0,1,32.2,30.91l15.51-15.737a4.474,4.474,0,0,0,1.324-3.14v-1.4C49.03,6.056,38.816,2.5,25.765,2.5Zm0,1.135c13.24,0,22.13,3.632,22.13,7v1.438a3.146,3.146,0,0,1-.984,2.307l-15.586,15.7A8.1,8.1,0,0,0,28.98,35.79v5.788a1.3,1.3,0,0,1-.719,1.172l-5.409,2.724c-.038,0-.038.037-.076.037a.2.2,0,0,1-.189-.189V35.827a8.039,8.039,0,0,0-2.345-5.712L4.618,14.379a3.3,3.3,0,0,1-.983-2.307V10.633C3.635,7.266,12.525,3.635,25.765,3.635Zm0,1.135C17.178,4.77,10.974,6.4,8.023,7.948a1.316,1.316,0,0,0,0,2.345c2.951,1.551,9.155,3.178,17.742,3.178s14.791-1.627,17.742-3.178a1.315,1.315,0,0,0,0-2.345C40.556,6.4,34.352,4.77,25.765,4.77Zm0,1.135c8.4,0,14.413,1.589,17.25,3.064a.2.2,0,0,1,.113.151c-.038.038-.038.114-.113.151-2.837,1.475-8.852,3.064-17.25,3.064S11.352,10.747,8.515,9.272A.2.2,0,0,1,8.4,9.12a.142.142,0,0,1,.114-.151C11.352,7.493,17.367,5.9,25.765,5.9ZM8.306,14.88a.58.58,0,0,0-.548.293.563.563,0,0,0,.227.757c2.951,1.551,9.155,3.178,17.742,3.178a.582.582,0,0,0,.567-.567.517.517,0,0,0-.53-.53c-8.4,0-14.413-1.589-17.25-3.064A.515.515,0,0,0,8.306,14.88Z" stroke="#000" stroke-width="0.3"/>
  </g>
</svg>
