<svg xmlns="http://www.w3.org/2000/svg" width="44.259" height="42.642" viewBox="0 0 44.259 42.642">
  <g id="noun_documents_4399898" transform="translate(-2 -11.281)">
    <g id="Group_208" data-name="Group 208" transform="translate(2 11.281)">
      <path id="Path_10975" data-name="Path 10975" d="M44.168,19.035h-4.03l-7.55-7.55a.706.706,0,0,0-.493-.2H13.633a2.106,2.106,0,0,0-2.1,2.1v2.047H9.817a2.106,2.106,0,0,0-2.1,2.1v1.5H4.091A2.093,2.093,0,0,0,2,21.126V47.338a2.093,2.093,0,0,0,2.091,2.091H19.413v3.1H18.129a.7.7,0,1,0,0,1.394h12a.7.7,0,1,0,0-1.394H28.846v-3.1H44.168a2.093,2.093,0,0,0,2.091-2.091V21.126A2.093,2.093,0,0,0,44.168,19.035Zm.7,2.091V42.145H40.546V20.429h3.622A.7.7,0,0,1,44.865,21.126ZM32.792,13.66l5.375,5.375H33.45a.659.659,0,0,1-.658-.658Zm-19.869-.276a.711.711,0,0,1,.71-.71H31.4v5.7a2.054,2.054,0,0,0,2.052,2.052h5.7V42.145H12.923ZM9.107,17.535a.711.711,0,0,1,.71-.71h1.713V42.145H9.107ZM3.394,21.126a.7.7,0,0,1,.7-.7H7.713V42.145H3.394Zm24.058,31.4H20.807v-3.1h6.646Zm16.716-4.494H4.091a.7.7,0,0,1-.7-.7v-3.8H44.865v3.8A.7.7,0,0,1,44.168,48.035Z" transform="translate(-2 -11.281)"/>
      <path id="Path_10976" data-name="Path 10976" d="M242.723,399.336h-1.261a.7.7,0,0,0,0,1.394h1.261a.7.7,0,1,0,0-1.394Z" transform="translate(-219.963 -365.527)"/>
      <path id="Path_10977" data-name="Path 10977" d="M157.429,167.943h19.794a.7.7,0,0,0,0-1.394H157.429a.7.7,0,0,0,0,1.394Z" transform="translate(-143.251 -153.021)"/>
      <path id="Path_10978" data-name="Path 10978" d="M157.429,236.38h19.794a.7.7,0,1,0,0-1.394H157.429a.7.7,0,1,0,0,1.394Z" transform="translate(-143.251 -215.496)"/>
      <path id="Path_10979" data-name="Path 10979" d="M157.429,304.816h19.794a.7.7,0,1,0,0-1.394H157.429a.7.7,0,1,0,0,1.394Z" transform="translate(-143.251 -277.969)"/>
    </g>
  </g>
</svg>
