<svg xmlns="http://www.w3.org/2000/svg" width="51.692" height="47.748" viewBox="0 0 51.692 47.748">
  <g id="noun_gold_bar_1342699" data-name="noun_gold bar_1342699" transform="translate(-5.363 -9.8)">
    <g id="Group_110" data-name="Group 110" transform="translate(5.363 9.8)">
      <g id="Group_109" data-name="Group 109">
        <path id="Path_399" data-name="Path 399" d="M38.086,80.5l-11.717.132L25.4,85.874l14.756.264Z" transform="translate(-16.574 -49.358)" fill="none"/>
        <path id="Path_400" data-name="Path 400" d="M57.819,13.064l-10-.264L29.1,41.431,40.288,41.3Z" transform="translate(-18.644 -11.479)" fill="none"/>
        <path id="Path_401" data-name="Path 401" d="M56.554,102.664a.559.559,0,0,1-.044-.264l-11.5.132L44,107.774l14.712.264Z" transform="translate(-26.981 -61.611)" fill="none"/>
        <path id="Path_402" data-name="Path 402" d="M75.2,65.611h0V65.7l1.982,4.889L94.713,41.869,92.819,37.2Z" transform="translate(-44.438 -25.131)" fill="none"/>
        <path id="Path_403" data-name="Path 403" d="M56.9,43.479l1.894,5.066L76.325,19.869,74.431,15.2Z" transform="translate(-34.199 -12.821)" fill="none"/>
        <path id="Path_404" data-name="Path 404" d="M39.15,47.946a.661.661,0,0,0,.617-.485c.044-.044.044-.044.044-.088L58.222,17.244a.659.659,0,0,0,.044-.573L55.756,10.5a.681.681,0,0,0-.749-.4L43.686,9.8a.642.642,0,0,0-.573.308L23.468,40.061h0a.162.162,0,0,0-.044.132v.088L22.279,46.8a.579.579,0,0,0,.132.529.707.707,0,0,0,.485.22l16.254.4Zm.264-2.423-1.894-5.11L55.051,12.179l1.894,4.669Zm4.581-34.4,10,.264L36.463,39.621l-11.232.132ZM24.614,41.074l11.717-.132,2.114,5.638-14.756-.308Z" transform="translate(-14.818 -9.8)"/>
        <path id="Path_405" data-name="Path 405" d="M76.811,38.8,74.3,32.629a.681.681,0,0,0-.749-.4L69.19,32.1h0a.661.661,0,0,0,0,1.321l3.3.088L55.007,61.744l-12.378.132a.783.783,0,0,0-.44.176h0l-.044.044a.043.043,0,0,1-.044.044c0,.044-.044.044-.044.088v.044c0,.044-.044.088-.044.132h0l-1.233,6.519a.579.579,0,0,0,.132.529,1.05,1.05,0,0,0,.485.264l16.254.308h0a.635.635,0,0,0,.573-.352A.344.344,0,0,0,58.4,69.5L76.811,39.368A.841.841,0,0,0,76.811,38.8ZM43.2,63.2l11.5-.132a.559.559,0,0,0,.044.264L56.9,68.7,42.189,68.44Zm14.712,4.493L55.932,62.8a.043.043,0,0,0-.044-.044h0L73.507,34.3,75.4,38.972Z" transform="translate(-25.169 -22.277)"/>
        <path id="Path_406" data-name="Path 406" d="M20,94.02A.661.661,0,1,0,20,92.7h0L8.418,92.83l2.907-4.361a.666.666,0,0,0-1.1-.749L6.612,93.139h0c-.044.044-.044.088-.088.132v.088L5.379,99.878a.579.579,0,0,0,.132.529,1.05,1.05,0,0,0,.485.264l12.466.308h0a.661.661,0,1,0,0-1.321L6.789,99.394l.925-5.242Z" transform="translate(-5.362 -53.231)"/>
        <path id="Path_407" data-name="Path 407" d="M15.123,24.745,14.462,23.6l-.617,1.145-1.145.617,1.145.617.617,1.145.661-1.145,1.1-.617Z" transform="translate(-9.468 -17.521)"/>
        <path id="Path_408" data-name="Path 408" d="M39.557,25.013l-1.057.573,1.057.573.573,1.057.573-1.057,1.057-.573L40.7,25.013,40.13,24Z" transform="translate(-23.903 -17.745)"/>
        <path id="Path_409" data-name="Path 409" d="M18.662,61.824l.661-1.145,1.145-.617-1.145-.617L18.662,58.3l-.617,1.145-1.145.617,1.145.617Z" transform="translate(-11.818 -36.937)"/>
        <path id="Path_410" data-name="Path 410" d="M111.1,20.5l-1.1.617,1.1.617.617,1.1.617-1.1,1.1-.617-1.1-.617-.617-1.1Z" transform="translate(-63.909 -15.171)"/>
        <path id="Path_411" data-name="Path 411" d="M115.2,83.5l-1.1.617,1.1.617.617,1.1.573-1.1,1.1-.617-1.1-.617-.573-1.1Z" transform="translate(-66.203 -50.421)"/>
      </g>
    </g>
  </g>
</svg>
