<svg xmlns="http://www.w3.org/2000/svg" width="51.657" height="56.578" viewBox="0 0 51.657 56.578">
  <g id="noun_report_4328108" transform="translate(-5.262 -1.001)">
    <path id="Path_10966" data-name="Path 10966" d="M53.632,9.485H21.8a1.672,1.672,0,0,0-1.67,1.67V54.6a1.672,1.672,0,0,0,1.67,1.67H53.632A1.672,1.672,0,0,0,55.3,54.6V11.155A1.672,1.672,0,0,0,53.632,9.485Zm.516,45.11a.516.516,0,0,1-.516.516H21.8a.516.516,0,0,1-.516-.516V11.155a.516.516,0,0,1,.516-.516H53.632a.516.516,0,0,1,.516.516V54.6Z" transform="translate(-6.286 -3.586)"/>
    <path id="Path_10967" data-name="Path 10967" d="M40.854,24.46a6.929,6.929,0,1,0-6.929,6.929A6.937,6.937,0,0,0,40.854,24.46Zm-7.506-5.746v5.412l-4.687,2.7a5.764,5.764,0,0,1,4.687-8.107ZM29.238,27.82,34.5,24.793V18.714a5.774,5.774,0,1,1-5.264,9.106Z" transform="translate(-9.186 -6.986)"/>
    <path id="Path_10968" data-name="Path 10968" d="M59.722,25.855h-4.57V34.9h4.57ZM58.567,33.75h-2.26V27.01h2.26Z" transform="translate(-21.087 -10.505)"/>
    <path id="Path_10969" data-name="Path 10969" d="M66.273,32.01h4.57V18.971h-4.57Zm1.155-11.885h2.26v10.73h-2.26Z" transform="translate(-25.788 -7.596)"/>
    <path id="Path_10970" data-name="Path 10970" d="M38.057,54.08H52.53V49.237H38.057Zm1.155-3.689H51.376v2.534H39.212Z" transform="translate(-13.862 -20.388)"/>
    <rect id="Rectangle_17621" data-name="Rectangle 17621" width="23.154" height="1.155" transform="translate(19.854 38.137)"/>
    <rect id="Rectangle_17622" data-name="Rectangle 17622" width="15.641" height="1.155" transform="translate(23.611 42.509)"/>
    <rect id="Rectangle_17623" data-name="Rectangle 17623" width="7.24" height="1.155" transform="translate(27.812 46.88)"/>
    <path id="Path_10971" data-name="Path 10971" d="M53.281,2.214a.516.516,0,0,1,.7.218l.567,1.088,1.024-.534L55,1.9a1.673,1.673,0,0,0-2.253-.708l-4.025,2.1.534,1.024Z" transform="translate(-18.37 0)"/>
    <path id="Path_10972" data-name="Path 10972" d="M6.441,26.53a.511.511,0,0,1,.253-.3L10.964,24l-.534-1.024L6.16,25.2a1.671,1.671,0,0,0-.708,2.254L11.209,38.49l1.024-.535L6.476,26.923A.512.512,0,0,1,6.441,26.53Z" transform="translate(0 -9.288)"/>
    <path id="Path_10973" data-name="Path 10973" d="M41.516,95.316a.5.5,0,0,1-.393.035.51.51,0,0,1-.3-.253l-.828-1.586-1.024.535.828,1.586a1.667,1.667,0,0,0,2.253.708l4.141-2.16-.534-1.024Z" transform="translate(-14.247 -38.952)"/>
    <path id="Path_10974" data-name="Path 10974" d="M90.01,62.271l-4.983-9.55L84,53.256l4.983,9.55a.515.515,0,0,1-.218.7L84.844,65.55l.535,1.024L89.3,64.524a1.669,1.669,0,0,0,.707-2.254Z" transform="translate(-33.283 -21.861)"/>
  </g>
</svg>
