<svg xmlns="http://www.w3.org/2000/svg" width="51.267" height="42.416" viewBox="0 0 51.267 42.416">
  <g id="noun_admin_3609804" transform="translate(-3.06 -13.61)">
    <g id="Group_108" data-name="Group 108" transform="translate(3.06 13.61)">
      <path id="Path_393" data-name="Path 393" d="M36.607,33.411a9.9,9.9,0,1,1,9.9-9.9A9.9,9.9,0,0,1,36.607,33.411Zm0-18.12a8.219,8.219,0,1,0,8.223,8.215,8.219,8.219,0,0,0-8.223-8.215Z" transform="translate(-16.767 -13.61)"/>
      <path id="Path_394" data-name="Path 394" d="M3.9,87.225a.841.841,0,0,1-.841-.841A19.461,19.461,0,0,1,17.774,67.465a.841.841,0,0,1,.925.383l4.137,6.891,3.506-6.823a.841.841,0,0,1,.954-.42,18.953,18.953,0,0,1,3.931,1.442.841.841,0,1,1-.765,1.5,16.988,16.988,0,0,0-2.943-1.156l-3.464,6.806a1.307,1.307,0,0,1-1.144.685h0a1.379,1.379,0,0,1-1.177-.639l-4.141-6.853A17.783,17.783,0,0,0,4.742,86.384a.841.841,0,0,1-.841.841ZM23.151,75.243Z" transform="translate(-3.06 -44.809)"/>
      <path id="Path_395" data-name="Path 395" d="M93.246,86.319a4.465,4.465,0,1,1,2.224-.6h0a4.435,4.435,0,0,1-2.224.6Zm1.8-1.324Zm-1.816-5.924a2.783,2.783,0,1,0,1.4,5.2h0a2.783,2.783,0,0,0-1.4-5.2Z" transform="translate(-52.739 -50.575)"/>
      <path id="Path_396" data-name="Path 396" d="M87.428,83.836h-5.8A.841.841,0,0,1,80.79,83V80.683a8.3,8.3,0,0,1-.975-.563l-1.879,1.127a.841.841,0,0,1-1.169-.311l-2.913-5.213a.841.841,0,0,1,.3-1.131L75.985,73.5a8.593,8.593,0,0,1,0-1.307L74.156,71.1a.841.841,0,0,1-.3-1.131l2.9-5.209a.841.841,0,0,1,1.181-.328l1.888,1.127c.13-.084.269-.172.42-.265s.37-.21.547-.3V62.681a.841.841,0,0,1,.841-.841h5.8a.841.841,0,0,1,.841.841v2.312a8.291,8.291,0,0,1,.975.563L91.12,64.43a.841.841,0,0,1,1.169.311l2.9,5.209a.841.841,0,0,1-.3,1.131l-1.829,1.093a8.619,8.619,0,0,1,0,1.307l1.829,1.093a.841.841,0,0,1,.3,1.131l-2.9,5.209a.841.841,0,0,1-1.165.311L89.236,80.1c-.13.084-.269.172-.42.265s-.37.21-.547.3v2.312a.841.841,0,0,1-.841.862Zm-4.957-1.682h4.116V80.136a.841.841,0,0,1,.534-.782,5.78,5.78,0,0,0,.841-.42,6.727,6.727,0,0,0,.719-.488.841.841,0,0,1,.954-.063l1.614.967,2.081-3.737-1.593-.95a.841.841,0,0,1-.42-.841,6.957,6.957,0,0,0,0-1.963.841.841,0,0,1,.42-.841l1.589-.95-2.1-3.737-1.606.967a.841.841,0,0,1-.946-.055,6.621,6.621,0,0,0-1.572-.908.841.841,0,0,1-.526-.778V63.538h-4.1v2.018a.841.841,0,0,1-.534.782,5.82,5.82,0,0,0-.841.42,6.7,6.7,0,0,0-.719.483.841.841,0,0,1-.954.063l-1.614-.967-2.081,3.737,1.593.95a.841.841,0,0,1,.42.841,6.949,6.949,0,0,0,0,1.963.841.841,0,0,1-.42.841l-1.589.95,2.1,3.737,1.606-.967a.841.841,0,0,1,.946.055,6.638,6.638,0,0,0,1.572.908.841.841,0,0,1,.526.778Z" transform="translate(-44.029 -41.563)"/>
    </g>
  </g>
</svg>
